<svg xmlns="http://www.w3.org/2000/svg" xmlns:xlink="http://www.w3.org/1999/xlink" width="1263" zoomAndPan="magnify" viewBox="0 0 947.25 148.499996" height="198" preserveAspectRatio="xMidYMid meet" version="1.0"><defs><clipPath id="06c7c9f0c6"><path d="M 843 0 L 945.285156 0 L 945.285156 144 L 843 144 Z M 843 0 " clip-rule="nonzero"/></clipPath><clipPath id="e42c471571"><path d="M 1.214844 0 L 107 0 L 107 143 L 1.214844 143 Z M 1.214844 0 " clip-rule="nonzero"/></clipPath></defs><path fill="#c94838" d="M 147.1875 38.828125 L 147.1875 61.863281 L 210.679688 61.863281 C 212.171875 61.863281 213.53125 62.46875 214.519531 63.453125 C 215.503906 64.441406 216.109375 65.800781 216.109375 67.292969 L 216.109375 84.929688 C 216.109375 87.929688 213.675781 90.359375 210.679688 90.359375 L 197.878906 90.359375 C 181.582031 90.359375 162.738281 91.71875 147.1875 94.324219 L 147.1875 107.757812 L 210.679688 107.757812 C 213.675781 107.757812 216.109375 110.191406 216.109375 113.1875 L 216.109375 137.222656 C 216.109375 140.21875 213.675781 142.648438 210.679688 142.648438 L 117.1875 142.648438 C 114.191406 142.648438 111.769531 140.21875 111.769531 137.222656 L 111.769531 5.429688 C 111.769531 2.433594 114.191406 0 117.1875 0 L 210.679688 0 C 213.675781 0 216.109375 2.433594 216.109375 5.429688 L 216.109375 29.453125 C 216.109375 32.449219 213.675781 34.882812 210.679688 34.882812 L 201.59375 34.882812 C 200.355469 34.871094 199.113281 34.863281 197.878906 34.863281 C 196.640625 34.863281 195.398438 34.871094 194.160156 34.882812 C 179.160156 35.074219 161.558594 36.414062 147.1875 38.828125 Z M 147.1875 38.828125 " fill-opacity="1" fill-rule="nonzero"/><path fill="#c94838" d="M 199.679688 34.882812 L 192.246094 34.882812 C 193.484375 34.871094 194.726562 34.863281 195.964844 34.863281 C 197.199219 34.863281 198.441406 34.871094 199.679688 34.882812 Z M 199.679688 34.882812 " fill-opacity="1" fill-rule="nonzero"/><path fill="#c94838" d="M 199.679688 34.882812 L 192.246094 34.882812 C 193.484375 34.871094 194.726562 34.863281 195.964844 34.863281 C 197.199219 34.863281 198.441406 34.871094 199.679688 34.882812 Z M 199.679688 34.882812 " fill-opacity="1" fill-rule="nonzero"/><path fill="#c94838" d="M 773.277344 40.183594 L 773.277344 63.222656 L 833.898438 63.222656 C 835.382812 63.222656 836.746094 63.824219 837.730469 64.8125 C 838.71875 65.796875 839.324219 67.15625 839.324219 68.652344 L 839.324219 86.289062 C 839.324219 89.285156 836.894531 91.71875 833.898438 91.71875 L 821.09375 91.71875 C 804.796875 91.71875 788.824219 93.078125 773.277344 95.679688 L 773.277344 109.117188 L 833.898438 109.117188 C 836.894531 109.117188 839.324219 111.546875 839.324219 114.542969 L 839.324219 138.578125 C 839.324219 141.574219 836.894531 144.007812 833.898438 144.007812 L 743.273438 144.007812 C 740.277344 144.007812 737.855469 141.574219 737.855469 138.578125 L 737.855469 6.785156 C 737.855469 3.789062 740.277344 1.355469 743.273438 1.355469 L 833.898438 1.355469 C 836.894531 1.355469 839.324219 3.789062 839.324219 6.785156 L 839.324219 30.808594 C 839.324219 33.808594 836.894531 36.238281 833.898438 36.238281 L 824.808594 36.238281 C 823.574219 36.230469 822.324219 36.21875 821.09375 36.21875 C 819.859375 36.21875 818.609375 36.230469 817.378906 36.238281 C 802.375 36.429688 787.644531 37.769531 773.277344 40.183594 Z M 773.277344 40.183594 " fill-opacity="1" fill-rule="nonzero"/><path fill="#c94838" d="M 824.808594 36.238281 L 817.378906 36.238281 C 818.609375 36.230469 819.859375 36.21875 821.09375 36.21875 C 822.324219 36.21875 823.574219 36.230469 824.808594 36.238281 Z M 824.808594 36.238281 " fill-opacity="1" fill-rule="nonzero"/><path fill="#c94838" d="M 824.808594 36.238281 L 817.378906 36.238281 C 818.609375 36.230469 819.859375 36.21875 821.09375 36.21875 C 822.324219 36.21875 823.574219 36.230469 824.808594 36.238281 Z M 824.808594 36.238281 " fill-opacity="1" fill-rule="nonzero"/><path fill="#c94838" d="M 506.234375 6.113281 C 506.234375 3.113281 503.800781 0.683594 500.804688 0.683594 L 410.195312 0.683594 C 407.195312 0.683594 404.765625 3.113281 404.765625 6.113281 L 404.765625 137.894531 C 404.765625 140.890625 407.195312 143.324219 410.195312 143.324219 L 441.179688 143.324219 L 441.179688 79.371094 L 461.277344 79.371094 C 461.546875 80.375 461.816406 81.390625 462.074219 82.40625 C 467.0625 101.882812 469.734375 122.296875 469.808594 143.324219 L 500.804688 143.324219 C 503.800781 143.324219 506.234375 140.890625 506.234375 137.894531 L 506.234375 84.367188 C 506.234375 82.554688 505.257812 80.871094 503.671875 79.996094 C 501.34375 78.710938 498.992188 77.472656 496.617188 76.273438 C 495.710938 75.816406 495.804688 74.507812 496.769531 74.1875 C 498.835938 73.503906 500.890625 72.789062 502.925781 72.035156 C 504.90625 71.308594 506.234375 69.433594 506.234375 67.324219 Z M 466.714844 43.351562 C 463.816406 44.421875 461.527344 46.71875 460.445312 49.621094 L 457.363281 57.960938 L 454.277344 49.621094 C 453.273438 46.929688 451.234375 44.757812 448.621094 43.597656 C 448.417969 43.511719 448.207031 43.425781 447.996094 43.351562 L 439.65625 40.265625 L 446.015625 37.910156 L 447.996094 37.171875 C 450.910156 36.101562 453.195312 33.8125 454.277344 30.902344 L 457.363281 22.5625 L 460.445312 30.902344 C 461.527344 33.8125 463.816406 36.101562 466.714844 37.171875 L 475.066406 40.265625 Z M 466.714844 43.351562 " fill-opacity="1" fill-rule="nonzero"/><path fill="#c94838" d="M 731.726562 1.363281 C 734.304688 1.363281 736.148438 3.863281 735.382812 6.324219 L 712.859375 79.015625 L 693.90625 140.179688 C 693.203125 142.453125 691.101562 144.003906 688.722656 144.003906 L 668.027344 144.003906 C 665.648438 144.003906 663.546875 142.453125 662.84375 140.179688 L 654.625 113.648438 L 651.761719 104.417969 L 643.890625 79.015625 L 621.375 6.324219 C 620.609375 3.859375 622.453125 1.363281 625.03125 1.363281 L 662.042969 1.363281 L 671.390625 79.015625 L 682.171875 79.015625 C 688.722656 67.503906 697.765625 27.769531 700.210938 1.363281 Z M 731.726562 1.363281 " fill-opacity="1" fill-rule="nonzero"/><g clip-path="url(#06c7c9f0c6)"><path fill="#c94838" d="M 935.824219 73.875 C 937.886719 73.191406 939.941406 72.476562 941.984375 71.722656 C 943.964844 70.992188 945.285156 69.121094 945.285156 67.011719 L 945.285156 5.800781 C 945.285156 2.800781 942.859375 0.371094 939.859375 0.371094 L 849.25 0.371094 C 846.253906 0.371094 843.816406 2.800781 843.816406 5.800781 L 843.816406 137.582031 C 843.816406 140.578125 846.253906 143.011719 849.25 143.011719 L 880.234375 143.011719 L 880.234375 79.058594 L 900.332031 79.058594 C 900.601562 80.0625 900.871094 81.078125 901.125 82.09375 C 906.117188 101.570312 908.789062 121.984375 908.863281 143.011719 L 939.859375 143.011719 C 942.859375 143.011719 945.285156 140.578125 945.285156 137.582031 L 945.285156 84.054688 C 945.285156 82.242188 944.316406 80.558594 942.722656 79.679688 C 940.398438 78.398438 938.042969 77.15625 935.667969 75.960938 C 934.761719 75.503906 934.859375 74.195312 935.824219 73.875 Z M 891.765625 53.179688 C 884.03125 53.179688 877.75 46.90625 877.75 39.167969 C 877.75 31.429688 884.03125 25.160156 891.765625 25.160156 C 899.503906 25.160156 905.773438 31.429688 905.773438 39.167969 C 905.773438 46.90625 899.503906 53.179688 891.765625 53.179688 Z M 907.710938 35.933594 C 906.074219 28.632812 899.5625 23.175781 891.765625 23.175781 C 883.972656 23.175781 877.460938 28.632812 875.816406 35.933594 L 874.03125 35.933594 C 875.695312 27.664062 883.007812 21.4375 891.765625 21.4375 C 900.527344 21.4375 907.832031 27.664062 909.503906 35.933594 Z M 907.710938 35.933594 " fill-opacity="1" fill-rule="nonzero"/></g><path fill="#c94838" d="M 588.203125 0.0429688 C 602.011719 0.636719 608.21875 6.632812 608.21875 6.632812 C 618.664062 13.660156 625.570312 25.585938 625.570312 39.050781 L 625.570312 100.304688 C 624.351562 99.835938 623.027344 99.582031 621.640625 99.582031 C 615.5625 99.582031 610.632812 104.511719 610.632812 110.59375 C 610.632812 116.675781 615.5625 121.605469 621.640625 121.605469 C 622.277344 121.605469 622.898438 121.550781 623.5 121.449219 C 618.253906 136.832031 603.625 147.976562 586.519531 147.976562 L 550.101562 147.976562 C 528.625 147.976562 511.050781 130.40625 511.050781 108.925781 L 511.050781 39.050781 C 511.050781 35.121094 511.636719 31.324219 512.730469 27.738281 C 514.75 30.101562 517.753906 31.597656 521.105469 31.597656 C 527.183594 31.597656 532.117188 26.667969 532.117188 20.585938 C 532.117188 15.539062 528.722656 11.285156 524.089844 9.984375 C 531.011719 3.785156 540.136719 0 550.101562 0 L 586.519531 0 C 587.085938 0 587.644531 0.0195312 588.203125 0.0429688 Z M 521.105469 30.484375 C 517.839844 30.484375 514.945312 28.902344 513.144531 26.464844 C 513.25 26.15625 513.359375 25.847656 513.472656 25.539062 C 515.097656 28.035156 517.90625 29.683594 521.105469 29.683594 C 526.128906 29.683594 530.199219 25.609375 530.199219 20.585938 C 530.199219 16.007812 526.816406 12.214844 522.410156 11.582031 C 522.640625 11.351562 522.875 11.121094 523.109375 10.894531 C 527.613281 11.820312 531 15.808594 531 20.585938 C 531 26.050781 526.570312 30.484375 521.105469 30.484375 Z M 514.398438 23.277344 C 514.597656 22.824219 514.808594 22.375 515.027344 21.933594 C 515.585938 24.46875 517.691406 26.425781 520.304688 26.757812 C 518.203125 25.507812 516.796875 23.210938 516.796875 20.585938 C 516.796875 19.640625 516.980469 18.734375 517.3125 17.90625 C 517.917969 16.96875 518.566406 16.058594 519.25 15.179688 C 519.578125 14.894531 519.929688 14.636719 520.304688 14.414062 C 520.128906 14.4375 519.957031 14.464844 519.789062 14.503906 C 520.097656 14.117188 520.417969 13.742188 520.742188 13.371094 C 520.863281 13.367188 520.984375 13.363281 521.105469 13.363281 C 525.09375 13.363281 528.328125 16.597656 528.328125 20.585938 C 528.328125 24.578125 525.09375 27.808594 521.105469 27.808594 C 518.066406 27.808594 515.464844 25.933594 514.398438 23.277344 Z M 625.570312 101.507812 L 625.570312 102.386719 C 624.382812 101.816406 623.050781 101.496094 621.640625 101.496094 C 616.617188 101.496094 612.546875 105.570312 612.546875 110.59375 C 612.546875 115.617188 616.617188 119.6875 621.640625 119.6875 C 622.511719 119.6875 623.355469 119.566406 624.15625 119.335938 C 624.070312 119.636719 623.984375 119.933594 623.894531 120.230469 C 623.171875 120.398438 622.417969 120.488281 621.640625 120.488281 C 616.175781 120.488281 611.746094 116.058594 611.746094 110.59375 C 611.746094 105.125 616.175781 100.695312 621.640625 100.695312 C 623.039062 100.695312 624.367188 100.984375 625.570312 101.507812 Z M 621.640625 103.367188 C 623.089844 103.367188 624.441406 103.792969 625.570312 104.53125 L 625.570312 108.925781 C 625.570312 111.742188 625.269531 114.492188 624.699219 117.140625 C 623.769531 117.574219 622.734375 117.816406 621.640625 117.816406 C 617.652344 117.816406 614.417969 114.582031 614.417969 110.59375 C 614.417969 106.601562 617.652344 103.367188 621.640625 103.367188 Z M 555.09375 105.324219 L 580.949219 105.324219 C 580.949219 66.546875 574.1875 47.433594 572.113281 42.128906 L 555.09375 42.128906 C 555.09375 60.328125 555.09375 71.261719 555.09375 81.855469 Z M 607.757812 43.566406 C 607.757812 49.648438 602.828125 54.578125 596.746094 54.578125 C 590.664062 54.578125 585.734375 49.648438 585.734375 43.566406 C 585.734375 37.484375 590.664062 32.554688 596.746094 32.554688 C 602.828125 32.554688 607.757812 37.484375 607.757812 43.566406 Z M 586.851562 43.566406 C 586.851562 49.03125 591.28125 53.460938 596.746094 53.460938 C 602.214844 53.460938 606.644531 49.03125 606.644531 43.566406 C 606.644531 38.101562 602.214844 33.671875 596.746094 33.671875 C 591.28125 33.671875 586.851562 38.101562 586.851562 43.566406 Z M 596.746094 52.664062 C 601.769531 52.664062 605.84375 48.589844 605.84375 43.566406 C 605.84375 38.542969 601.769531 34.46875 596.746094 34.46875 C 591.722656 34.46875 587.652344 38.542969 587.652344 43.566406 C 587.652344 48.589844 591.722656 52.664062 596.746094 52.664062 Z M 596.746094 50.789062 C 592.757812 50.789062 589.523438 47.554688 589.523438 43.566406 C 589.523438 39.578125 592.757812 36.34375 596.746094 36.34375 C 600.738281 36.34375 603.972656 39.578125 603.972656 43.566406 C 603.972656 47.554688 600.738281 50.789062 596.746094 50.789062 Z M 595.949219 37.394531 C 592.890625 37.785156 590.523438 40.398438 590.523438 43.566406 C 590.523438 46.734375 592.886719 49.347656 595.949219 49.738281 C 593.847656 48.488281 592.4375 46.191406 592.4375 43.566406 C 592.4375 40.941406 593.847656 38.648438 595.949219 37.394531 Z M 615.417969 110.59375 C 615.417969 107.425781 617.78125 104.8125 620.84375 104.417969 C 618.742188 105.671875 617.332031 107.96875 617.332031 110.59375 C 617.332031 113.214844 618.742188 115.511719 620.84375 116.765625 C 617.78125 116.371094 615.417969 113.757812 615.417969 110.59375 Z M 534.03125 135.007812 C 542.492188 135.007812 549.351562 128.148438 549.351562 119.6875 C 549.351562 111.226562 542.492188 104.367188 534.03125 104.367188 C 525.570312 104.367188 518.710938 111.226562 518.710938 119.6875 C 518.710938 128.148438 525.570312 135.007812 534.03125 135.007812 Z M 534.03125 133.457031 C 526.425781 133.457031 520.261719 127.292969 520.261719 119.6875 C 520.261719 112.085938 526.425781 105.917969 534.03125 105.917969 C 541.632812 105.917969 547.796875 112.085938 547.796875 119.6875 C 547.796875 127.292969 541.632812 133.457031 534.03125 133.457031 Z M 546.6875 119.6875 C 546.6875 126.679688 541.019531 132.34375 534.03125 132.34375 C 527.042969 132.34375 521.375 126.679688 521.375 119.6875 C 521.375 112.699219 527.042969 107.03125 534.03125 107.03125 C 541.019531 107.03125 546.6875 112.699219 546.6875 119.6875 Z M 523.980469 119.6875 C 523.980469 125.238281 528.480469 129.738281 534.03125 129.738281 C 539.582031 129.738281 544.082031 125.238281 544.082031 119.6875 C 544.082031 114.136719 539.582031 109.636719 534.03125 109.636719 C 528.480469 109.636719 523.980469 114.136719 523.980469 119.6875 Z M 525.371094 119.6875 C 525.371094 115.28125 528.660156 111.644531 532.917969 111.101562 C 529.992188 112.84375 528.035156 116.035156 528.035156 119.6875 C 528.035156 123.339844 529.992188 126.535156 532.917969 128.277344 C 528.660156 127.730469 525.371094 124.09375 525.371094 119.6875 Z M 544.5625 74.207031 C 544.5625 78.703125 540.917969 82.347656 536.425781 82.347656 C 531.929688 82.347656 528.285156 78.703125 528.285156 74.207031 C 528.285156 69.710938 531.929688 66.066406 536.425781 66.066406 C 540.917969 66.066406 544.5625 69.710938 544.5625 74.207031 Z M 529.109375 74.207031 C 529.109375 78.246094 532.382812 81.519531 536.425781 81.519531 C 540.464844 81.519531 543.738281 78.246094 543.738281 74.207031 C 543.738281 70.167969 540.464844 66.890625 536.425781 66.890625 C 532.382812 66.890625 529.109375 70.167969 529.109375 74.207031 Z M 543.148438 74.269531 C 543.132812 75.679688 542.679688 77.050781 541.84375 78.1875 L 540.726562 77.367188 C 541.390625 76.464844 541.753906 75.375 541.765625 74.257812 C 541.773438 73.136719 541.433594 72.042969 540.785156 71.125 L 541.914062 70.328125 C 542.730469 71.480469 543.160156 72.859375 543.148438 74.269531 Z M 538.878906 80.464844 C 537.851562 80.871094 536.738281 81.011719 535.640625 80.882812 C 534.542969 80.753906 533.492188 80.359375 532.585938 79.726562 C 531.675781 79.09375 530.941406 78.25 530.4375 77.265625 C 529.933594 76.28125 529.683594 75.1875 529.703125 74.082031 C 529.722656 72.976562 530.015625 71.890625 530.554688 70.925781 C 531.09375 69.960938 531.863281 69.144531 532.792969 68.546875 C 533.726562 67.949219 534.789062 67.59375 535.890625 67.503906 C 536.992188 67.417969 538.101562 67.601562 539.113281 68.042969 L 538.558594 69.3125 C 538.15625 69.136719 537.738281 69.011719 537.308594 68.941406 C 534.964844 68.988281 533.074219 71.328125 533.074219 74.207031 C 533.074219 77.085938 534.964844 79.425781 537.308594 79.472656 C 537.671875 79.410156 538.03125 79.3125 538.375 79.175781 L 538.429688 79.316406 C 538.453125 79.308594 538.476562 79.300781 538.503906 79.292969 C 538.480469 79.308594 538.460938 79.328125 538.441406 79.34375 Z M 538.878906 80.464844 " fill-opacity="1" fill-rule="evenodd"/><path fill="#c94838" d="M 395.652344 0 L 341.945312 0 C 357.234375 32.039062 368.066406 66.625 373.636719 102.933594 C 359.582031 63.828125 337.03125 28.773438 308.21875 0 L 224.753906 0 C 222.636719 0 220.925781 1.714844 220.925781 3.828125 L 220.925781 138.820312 C 220.925781 140.9375 222.636719 142.648438 224.753906 142.648438 L 256.621094 142.648438 C 256.621094 112.277344 264.527344 92.609375 281.746094 79.398438 L 321.460938 79.398438 C 338.679688 92.609375 345.628906 112.277344 345.628906 142.648438 L 395.652344 142.648438 C 397.765625 142.648438 399.480469 140.9375 399.480469 138.820312 L 399.480469 3.828125 C 399.480469 1.714844 397.765625 0 395.652344 0 Z M 379.125 109.597656 L 375.324219 107.210938 L 371.886719 110.09375 L 372.96875 105.746094 L 369.175781 103.363281 L 373.648438 103.058594 L 374.738281 98.699219 L 376.414062 102.863281 L 380.886719 102.558594 L 377.449219 105.429688 Z M 379.125 109.597656 " fill-opacity="1" fill-rule="nonzero"/><g clip-path="url(#e42c471571)"><path fill="#c94838" d="M 85.773438 63.378906 L 103.363281 58.792969 C 104.964844 58.292969 106.054688 56.808594 106.054688 55.132812 L 106.054688 7.660156 C 106.054688 3.429688 102.625 0 98.394531 0 L 8.820312 0 C 4.621094 0 1.214844 3.402344 1.214844 7.601562 L 1.214844 135 C 1.214844 139.222656 4.640625 142.648438 8.867188 142.648438 L 98.394531 142.648438 C 102.625 142.648438 106.054688 139.21875 106.054688 134.988281 L 106.054688 70.789062 C 106.054688 68.804688 104.550781 67.148438 102.578125 66.96875 L 86.023438 65.714844 C 84.710938 65.597656 84.519531 63.769531 85.773438 63.378906 Z M 73.46875 90.378906 C 59.105469 90.378906 48.09375 90.484375 32.296875 94.566406 L 32.296875 107.242188 L 73.46875 107.242188 Z M 32.296875 38.660156 C 48.09375 34.578125 59.105469 34.46875 73.46875 34.46875 L 73.46875 51.332031 L 32.296875 51.332031 Z M 32.296875 38.660156 " fill-opacity="1" fill-rule="evenodd"/></g></svg>