<svg width="1263" height="198" viewBox="0 0 1263 198" fill="none" xmlns="http://www.w3.org/2000/svg">
<path d="M195.284 51.9436V82.7639H280.225C282.224 82.7639 284.043 83.5709 285.362 84.8903C286.681 86.2097 287.488 88.0287 287.488 90.027V113.623C287.488 117.632 284.235 120.886 280.225 120.886H263.099C241.296 120.886 216.087 122.705 195.284 126.189V144.161H280.225C284.235 144.161 287.488 147.415 287.488 151.424V183.577C287.488 187.586 284.235 190.84 280.225 190.84H155.151C151.141 190.84 147.9 187.586 147.9 183.577V7.26311C147.9 3.25366 151.141 0 155.151 0H280.225C284.235 0 287.488 3.25366 287.488 7.26311V39.4028C287.488 43.4123 284.235 46.666 280.225 46.666H268.069C266.416 46.6532 264.751 46.6403 263.099 46.6403C261.446 46.6403 259.781 46.6532 258.128 46.666C238.056 46.9221 214.511 48.7155 195.284 51.9436Z" fill="white"/>
<path d="M265.508 46.6662H255.567C257.22 46.6534 258.885 46.6406 260.538 46.6406C262.19 46.6406 263.855 46.6534 265.508 46.6662Z" fill="white"/>
<path d="M265.508 46.6662H255.567C257.22 46.6534 258.885 46.6406 260.538 46.6406C262.19 46.6406 263.855 46.6534 265.508 46.6662Z" fill="white"/>
<path d="M1032.88 53.7593V84.5796H1113.98C1115.97 84.5796 1117.79 85.3866 1119.11 86.706C1120.43 88.0254 1121.24 89.8444 1121.24 91.8427V115.438C1121.24 119.448 1117.99 122.701 1113.98 122.701H1096.85C1075.05 122.701 1053.68 124.52 1032.88 128.005V145.977H1113.98C1117.99 145.977 1121.24 149.23 1121.24 153.24V185.393C1121.24 189.402 1117.99 192.656 1113.98 192.656H992.744C988.735 192.656 985.494 189.402 985.494 185.393V9.07879C985.494 5.06933 988.735 1.81567 992.744 1.81567H1113.98C1117.99 1.81567 1121.24 5.06933 1121.24 9.07879V41.2185C1121.24 45.2279 1117.99 48.4817 1113.98 48.4817H1101.82C1100.17 48.4688 1098.5 48.456 1096.85 48.456C1095.2 48.456 1093.53 48.4688 1091.88 48.4817C1071.81 48.7378 1052.1 50.5312 1032.88 53.7593Z" fill="white"/>
<path d="M1101.82 48.4819H1091.88C1093.53 48.4691 1095.2 48.4562 1096.85 48.4562C1098.5 48.4562 1100.17 48.4691 1101.82 48.4819Z" fill="white"/>
<path d="M1101.82 48.4819H1091.88C1093.53 48.4691 1095.2 48.4562 1096.85 48.4562C1098.5 48.4562 1100.17 48.4691 1101.82 48.4819Z" fill="white"/>
<path d="M675.624 8.17701C675.624 4.16566 672.372 0.913818 668.361 0.913818H547.142C543.131 0.913818 539.879 4.16563 539.879 8.17694V184.478C539.879 188.489 543.131 191.741 547.142 191.741H588.594V106.185H615.482C615.841 107.53 616.2 108.887 616.545 110.245C623.219 136.3 626.793 163.611 626.896 191.741H668.361C672.372 191.741 675.624 188.489 675.624 184.478V112.87C675.624 110.443 674.32 108.19 672.195 107.018C669.084 105.303 665.937 103.643 662.757 102.042C661.545 101.431 661.674 99.6788 662.963 99.2522C665.728 98.3364 668.475 97.377 671.201 96.3721C673.85 95.3958 675.624 92.8905 675.624 90.0678V8.17701ZM622.758 57.9942C618.877 59.4289 615.815 62.5032 614.368 66.3845L610.243 77.5419L606.118 66.3845C604.773 62.785 602.045 59.8772 598.548 58.3272C598.279 58.2119 597.997 58.0967 597.715 57.9942L586.558 53.8694L595.063 50.7182L597.715 49.7318C601.609 48.2971 604.671 45.2357 606.118 41.3415L610.243 30.1842L614.368 41.3415C615.815 45.2357 618.877 48.2971 622.758 49.7318L633.928 53.8694L622.758 57.9942Z" fill="white"/>
<path d="M977.292 1.82263C980.744 1.82263 983.208 5.16613 982.186 8.46311L952.053 105.71L926.698 187.536C925.756 190.577 922.944 192.65 919.761 192.65H892.077C888.893 192.65 886.081 190.577 885.139 187.536L874.144 152.043L870.314 139.694L859.784 105.71L829.663 8.46256C828.641 5.16568 831.106 1.82263 834.557 1.82263H884.071L896.574 105.71H910.998C919.761 90.3089 931.858 37.1483 935.131 1.82263H977.292Z" fill="white"/>
<path d="M1250.34 98.8337C1253.1 97.918 1255.85 96.9585 1258.58 95.9536C1261.23 94.9773 1263 92.472 1263 89.6493V7.75856C1263 3.74722 1259.75 0.495361 1255.74 0.495361H1134.52C1130.51 0.495361 1127.25 3.74714 1127.25 7.75848V184.059C1127.25 188.071 1130.51 191.323 1134.52 191.323H1175.97V105.766H1202.86C1203.22 107.111 1203.58 108.469 1203.92 109.827C1210.6 135.882 1214.17 163.192 1214.27 191.323H1255.74C1259.75 191.323 1263 188.071 1263 184.059V112.451C1263 110.024 1261.7 107.771 1259.57 106.599C1256.46 104.885 1253.31 103.224 1250.13 101.623C1248.92 101.013 1249.05 99.2604 1250.34 98.8337ZM1191.4 71.1443C1181.05 71.1443 1172.65 62.7528 1172.65 52.4013C1172.65 42.0498 1181.05 33.6582 1191.4 33.6582C1201.75 33.6582 1210.14 42.0498 1210.14 52.4013C1210.14 62.7528 1201.75 71.1443 1191.4 71.1443ZM1212.73 48.0705C1210.54 38.3055 1201.83 31.0054 1191.4 31.0054C1180.97 31.0054 1172.26 38.3055 1170.06 48.0705H1167.67C1169.9 37.0091 1179.68 28.6805 1191.4 28.6805C1203.12 28.6805 1212.89 37.0091 1215.13 48.0705H1212.73Z" fill="white"/>
<path fill-rule="evenodd" clip-rule="evenodd" d="M785.287 0.0574657C803.761 0.85184 812.064 8.87114 812.064 8.87114C826.037 18.273 835.278 34.23 835.278 52.243V134.188C833.645 133.563 831.873 133.222 830.021 133.222C821.885 133.222 815.29 139.817 815.29 147.953C815.29 156.089 821.885 162.684 830.021 162.684C830.869 162.684 831.7 162.612 832.508 162.475C825.487 183.059 805.918 197.969 783.035 197.969H734.311C705.578 197.969 682.068 174.46 682.068 145.726V52.243C682.068 46.9861 682.855 41.904 684.317 37.1088C687.019 40.269 691.035 42.2722 695.519 42.2722C703.654 42.2722 710.25 35.6768 710.25 27.541C710.25 20.7901 705.709 15.0998 699.515 13.3582C708.771 5.06163 720.979 0 734.311 0H783.035C783.79 0 784.54 0.025326 785.287 0.0574657ZM695.519 40.7802C691.152 40.7802 687.28 38.6666 684.868 35.4067C685.011 34.9917 685.158 34.579 685.311 34.1687C687.481 37.5046 691.242 39.7103 695.519 39.7103C702.239 39.7103 707.688 34.2619 707.688 27.541C707.688 21.4133 703.159 16.3434 697.266 15.4962C697.574 15.185 697.887 14.8776 698.203 14.5741C704.228 15.815 708.758 21.149 708.758 27.541C708.758 34.8528 702.83 40.7802 695.519 40.7802ZM686.546 31.1401C686.816 30.5352 687.096 29.9363 687.388 29.3437C688.136 32.7359 690.954 35.3514 694.449 35.7994C691.638 34.1233 689.754 31.0522 689.754 27.5411C689.754 26.2738 690 25.0638 690.445 23.9561C691.258 22.7027 692.123 21.4859 693.037 20.3089C693.475 19.9259 693.947 19.582 694.45 19.2826C694.216 19.3126 693.985 19.3522 693.758 19.4011C694.174 18.8888 694.6 18.3845 695.035 17.8885C695.195 17.8806 695.356 17.8766 695.519 17.8766C700.856 17.8766 705.183 22.2035 705.183 27.541C705.183 32.8786 700.856 37.2055 695.519 37.2055C691.453 37.2055 687.974 34.6952 686.546 31.1401ZM835.278 135.799V136.975C833.687 136.211 831.904 135.784 830.02 135.784C823.299 135.784 817.851 141.232 817.851 147.953C817.851 154.674 823.299 160.122 830.02 160.122C831.186 160.122 832.314 159.958 833.382 159.652C833.27 160.052 833.154 160.451 833.033 160.848C832.066 161.073 831.057 161.192 830.021 161.192C822.709 161.192 816.782 155.265 816.782 147.953C816.782 140.641 822.709 134.714 830.021 134.714C831.889 134.714 833.667 135.101 835.278 135.799ZM830.02 138.288C831.959 138.288 833.765 138.859 835.278 139.843V145.726C835.278 149.492 834.875 153.168 834.108 156.713C832.867 157.293 831.481 157.617 830.02 157.617C824.683 157.617 820.356 153.29 820.356 147.953C820.356 142.615 824.683 138.288 830.02 138.288ZM740.993 140.907H775.579C775.579 89.0279 766.535 63.4552 763.759 56.363H740.993C740.993 80.7066 740.993 95.3369 740.993 109.51V109.674V109.826V109.967V110.098V110.219V110.331V110.434V110.53V110.618V110.699V110.774V110.842V110.906V110.964L740.993 140.907ZM811.447 58.2845C811.447 66.4203 804.852 73.0157 796.716 73.0157C788.58 73.0157 781.985 66.4203 781.985 58.2845C781.985 50.1486 788.58 43.5532 796.716 43.5532C804.852 43.5532 811.447 50.1486 811.447 58.2845ZM783.477 58.2845C783.477 65.5963 789.404 71.5236 796.716 71.5236C804.028 71.5236 809.955 65.5963 809.955 58.2845C809.955 50.9727 804.028 45.0453 796.716 45.0453C789.404 45.0453 783.477 50.9727 783.477 58.2845ZM796.716 70.4537C803.437 70.4537 808.885 65.0053 808.885 58.2844C808.885 51.5635 803.437 46.1152 796.716 46.1152C789.995 46.1152 784.547 51.5635 784.547 58.2844C784.547 65.0053 789.995 70.4537 796.716 70.4537ZM796.716 67.9489C791.378 67.9489 787.051 63.622 787.051 58.2844C787.051 52.9469 791.378 48.62 796.716 48.62C802.053 48.62 806.38 52.9469 806.38 58.2844C806.38 63.622 802.053 67.9489 796.716 67.9489ZM795.647 50.0262C791.554 50.5512 788.39 54.0484 788.39 58.2845C788.39 62.5204 791.553 66.0176 795.647 66.5427C792.835 64.8666 790.952 61.7955 790.952 58.2845C790.952 54.7734 792.835 51.7022 795.647 50.0262ZM821.694 147.953C821.694 143.717 824.857 140.22 828.951 139.695C826.139 141.371 824.255 144.442 824.255 147.953C824.255 151.464 826.139 154.535 828.95 156.211C824.857 155.686 821.694 152.189 821.694 147.953ZM712.812 180.618C724.131 180.618 733.307 171.442 733.307 160.122C733.307 148.803 724.131 139.626 712.812 139.626C701.492 139.626 692.316 148.803 692.316 160.122C692.316 171.442 701.492 180.618 712.812 180.618ZM712.812 178.542C702.639 178.542 694.392 170.295 694.392 160.122C694.392 149.949 702.639 141.702 712.812 141.702C722.984 141.702 731.231 149.949 731.231 160.122C731.231 170.295 722.984 178.542 712.812 178.542ZM729.744 160.122C729.744 169.473 722.163 177.053 712.812 177.053C703.462 177.053 695.881 169.473 695.881 160.122C695.881 150.771 703.462 143.191 712.812 143.191C722.163 143.191 729.744 150.771 729.744 160.122ZM699.366 160.122C699.366 167.548 705.386 173.568 712.812 173.568C720.239 173.568 726.259 167.548 726.259 160.122C726.259 152.696 720.239 146.676 712.812 146.676C705.386 146.676 699.366 152.696 699.366 160.122ZM701.225 160.122C701.225 154.228 705.627 149.362 711.322 148.632C707.411 150.964 704.79 155.237 704.79 160.122C704.79 165.007 707.411 169.28 711.324 171.612C705.628 170.883 701.225 166.017 701.225 160.122ZM726.902 99.2757C726.902 105.289 722.027 110.164 716.014 110.164C710.001 110.164 705.126 105.289 705.126 99.2757C705.126 93.2622 710.001 88.3874 716.014 88.3874C722.027 88.3874 726.902 93.2622 726.902 99.2757ZM706.229 99.2757C706.229 104.68 710.61 109.061 716.014 109.061C721.418 109.061 725.8 104.68 725.8 99.2757C725.8 93.8713 721.418 89.4902 716.014 89.4902C710.61 89.4902 706.229 93.8713 706.229 99.2757ZM725.009 99.3595C724.991 101.247 724.381 103.08 723.263 104.601L721.771 103.505C722.659 102.297 723.144 100.841 723.158 99.3422C723.172 97.8435 722.714 96.3784 721.849 95.1543L723.361 94.0861C724.45 95.6276 725.027 97.4724 725.009 99.3595ZM719.3 107.648C717.923 108.189 716.434 108.381 714.965 108.209C713.496 108.036 712.092 107.504 710.878 106.659C709.664 105.815 708.677 104.683 708.004 103.366C707.331 102.049 706.994 100.586 707.021 99.1068C707.049 97.6279 707.441 96.1787 708.163 94.8874C708.884 93.5962 709.913 92.5029 711.158 91.7043C712.404 90.9057 713.826 90.4265 715.301 90.3091C716.775 90.1917 718.256 90.4398 719.612 91.0314L718.871 92.7283C718.334 92.494 717.773 92.3275 717.199 92.2311C714.06 92.2935 711.531 95.4235 711.531 99.2755C711.531 103.127 714.06 106.257 717.199 106.32C717.684 106.238 718.162 106.106 718.624 105.925L718.697 106.111C718.73 106.101 718.762 106.091 718.794 106.08C718.767 106.103 718.739 106.126 718.712 106.148L719.3 107.648Z" fill="white"/>
<path d="M527.684 0H455.834C476.291 42.8614 490.779 89.1303 498.234 137.705C479.43 85.39 449.263 38.4933 410.718 0H299.056C296.224 0 293.932 2.29285 293.932 5.12391V185.716C293.932 188.547 296.224 190.84 299.056 190.84H341.686C341.686 150.207 352.267 123.896 375.299 106.219H428.434C451.466 123.896 460.766 150.207 460.766 190.84H527.684C530.515 190.84 532.808 188.547 532.808 185.716V5.12391C532.808 2.29285 530.515 0 527.684 0ZM505.574 146.621L500.489 143.431L495.891 147.287L497.338 141.471L492.265 138.282L498.247 137.872L499.707 132.043L501.949 137.615L507.932 137.205L503.333 141.048L505.574 146.621Z" fill="white"/>
<path fill-rule="evenodd" clip-rule="evenodd" d="M113.123 84.7878L136.654 78.6522C138.796 77.9848 140.254 76.002 140.254 73.7586V10.2478C140.254 4.58804 135.666 0 130.007 0H10.1712C4.55379 0 0 4.55363 0 10.1709V46.5596V60.882V127.465V141.787V180.605C0 186.257 4.58256 190.84 10.2353 190.84H130.007C135.666 190.84 140.254 186.252 140.254 180.592V94.7025C140.254 92.0508 138.243 89.8347 135.604 89.5914L113.456 87.9133C111.701 87.7597 111.445 85.3129 113.123 84.7878ZM96.6612 120.909C77.4465 120.909 62.7153 121.052 41.5792 126.515V143.469L96.6612 143.469V120.909ZM41.5792 51.7215C62.7153 46.2584 77.4465 46.115 96.6612 46.1151V68.6752L41.5792 68.6752V51.7215Z" fill="white"/>
</svg>
